<?xml version="1.0" standalone="no"?>
<!DOCTYPE svg PUBLIC "-//W3C//DTD SVG 20010904//EN"
 "http://www.w3.org/TR/2001/REC-SVG-20010904/DTD/svg10.dtd">
<svg version="1.0" xmlns="http://www.w3.org/2000/svg"
 width="186.000000pt" height="145.000000pt" viewBox="0 0 186.000000 145.000000"
 preserveAspectRatio="xMidYMid meet">

<g transform="translate(0.000000,145.000000) scale(0.100000,-0.100000)"
fill="#000000" stroke="none">
<path d="M345 1265 c-75 -26 -128 -113 -156 -256 -19 -96 -16 -503 4 -601 41
-199 142 -288 277 -243 45 15 51 15 66 1 20 -20 38 -20 55 0 10 12 10 35 -4
127 -9 62 -17 127 -17 145 0 19 -8 40 -21 53 -18 18 -28 20 -67 14 -64 -9 -84
-22 -80 -48 2 -18 11 -23 53 -27 46 -5 50 -7 56 -35 4 -16 7 -51 8 -77 1 -40
-3 -50 -30 -72 -56 -47 -147 -30 -187 36 -48 78 -56 138 -55 378 1 327 27 472
94 534 26 23 38 27 67 22 53 -8 77 17 46 48 -19 19 -56 20 -109 1z"/>
<path d="M1522 1268 c-8 -8 -12 -74 -13 -222 -1 -116 -5 -323 -8 -461 l-6
-250 -28 120 c-124 522 -207 787 -254 802 -7 3 -16 -8 -20 -24 -12 -44 -7
-1043 6 -1056 7 -7 18 -7 37 2 l26 12 -6 102 c-3 56 -8 253 -11 437 l-5 335
19 -60 c11 -33 47 -161 81 -285 69 -253 154 -515 176 -545 13 -18 15 -18 32
-2 16 16 17 62 22 550 3 299 1 537 -4 545 -11 15 -29 15 -44 0z"/>
<path d="M751 1242 c-18 -10 -44 -36 -58 -59 -22 -38 -22 -42 -8 -57 29 -28
53 -17 80 38 6 12 22 22 38 24 24 3 30 -2 47 -40 22 -50 36 -160 26 -212 -4
-19 -25 -59 -46 -88 -22 -29 -40 -58 -40 -65 0 -7 15 -16 33 -21 24 -6 38 -20
59 -58 37 -68 51 -156 47 -306 -4 -118 -6 -128 -28 -152 -28 -30 -81 -35 -101
-11 -19 23 -40 18 -40 -10 0 -61 122 -85 175 -35 46 43 60 102 59 245 -1 178
-34 306 -92 358 -20 18 -20 19 11 69 29 47 32 57 30 126 -3 85 -24 179 -49
218 -19 28 -63 54 -91 54 -10 0 -33 -8 -52 -18z"/>
</g>
</svg>
